<svg width="24" height="24" viewBox="0 0 24 24" fill="none" xmlns="http://www.w3.org/2000/svg">
<path d="M20.0005 4.57741C19.8331 4.36147 19.6398 4.16795 19.4255 4.00067C19.6406 3.83229 19.8331 3.638 19.9995 3.42283C20.1669 3.63877 20.3602 3.83229 20.5745 3.99958C20.3594 4.16796 20.1669 4.36225 20.0005 4.57741Z" stroke="white" stroke-width="1.5"/>
<path d="M14.9471 5.78695C14.9523 5.77286 14.9571 5.76636 14.9589 5.7641C14.9608 5.76166 14.9626 5.76013 14.9647 5.75874C14.9697 5.75543 14.9818 5.75012 15 5.75012C15.0182 5.75012 15.0303 5.75543 15.0353 5.75874C15.0374 5.76013 15.0392 5.76166 15.0411 5.7641C15.0429 5.76636 15.0477 5.77286 15.0529 5.78695C16.109 8.64095 18.3592 10.8912 21.2132 11.9472C21.2273 11.9524 21.2338 11.9572 21.236 11.959C21.2385 11.9609 21.24 11.9627 21.2414 11.9648C21.2447 11.9699 21.25 11.9819 21.25 12.0001C21.25 12.0183 21.2447 12.0304 21.2414 12.0354C21.24 12.0375 21.2385 12.0393 21.236 12.0412C21.2338 12.043 21.2273 12.0478 21.2132 12.053C18.3592 13.1091 16.109 15.3593 15.0529 18.2133C15.0477 18.2274 15.0429 18.2339 15.0411 18.2361C15.0392 18.2386 15.0374 18.2401 15.0353 18.2415C15.0303 18.2448 15.0182 18.2501 15 18.2501C14.9818 18.2501 14.9697 18.2448 14.9647 18.2415C14.9626 18.2401 14.9608 18.2386 14.9589 18.2361C14.9571 18.2339 14.9523 18.2274 14.9471 18.2133C13.891 15.3593 11.6408 13.1091 8.78682 12.053C8.77274 12.0478 8.76623 12.043 8.76398 12.0412C8.76154 12.0393 8.76001 12.0375 8.75861 12.0354C8.75531 12.0304 8.75 12.0183 8.75 12.0001C8.75 11.9819 8.75531 11.9699 8.75861 11.9648C8.76001 11.9627 8.76154 11.9609 8.76398 11.959C8.76623 11.9572 8.77274 11.9524 8.78682 11.9472C11.6408 10.8912 13.891 8.64095 14.9471 5.78695Z" stroke="white" stroke-width="1.5" stroke-linejoin="round"/>
<path d="M6 12.0001L3 12.0001" stroke="white" stroke-width="1.5" stroke-linecap="round" stroke-linejoin="round"/>
<path d="M9 9.00012L6 9.00012" stroke="white" stroke-width="1.5" stroke-linecap="round" stroke-linejoin="round"/>
<path d="M9 15.0001L4 15.0001" stroke="white" stroke-width="1.5" stroke-linecap="round" stroke-linejoin="round"/>
</svg>
