<svg width="24" height="24" viewBox="0 0 24 24" fill="none" xmlns="http://www.w3.org/2000/svg">
<path d="M3.18739 6.00012C4.40464 5.39235 5.39223 4.40477 6 3.18751C6.60777 4.40477 7.59536 5.39235 8.81261 6.00012C7.59536 6.6079 6.60777 7.59548 6 8.81273C5.39223 7.59548 4.40464 6.6079 3.18739 6.00012Z" stroke="white" stroke-width="1.5" stroke-linejoin="round"/>
<path d="M20.1443 15.1046L20.2139 15.2937C20.4726 15.9802 21.01 16.5275 21.7065 16.7862L21.8955 16.8558C22.0348 16.9056 22.0348 17.0946 21.8955 17.1444L21.7065 17.2141C21.0199 17.4728 20.4726 18.0101 20.2139 18.7066L20.1443 18.8956C20.0945 19.0349 19.9055 19.0349 19.8557 18.8956L19.7861 18.7066C19.5274 18.02 18.99 17.4728 18.2935 17.2141L18.1045 17.1444C17.9652 17.0946 17.9652 16.9056 18.1045 16.8558L18.2935 16.7862C18.9801 16.5275 19.5274 15.9902 19.7861 15.2937L19.8557 15.1046C19.9055 14.9653 20.0945 14.9653 20.1443 15.1046Z" fill="white"/>
<path d="M8 21.0001L20 21.0001" stroke="white" stroke-width="1.5" stroke-linecap="round" stroke-linejoin="round"/>
<path d="M16.0607 6.06078L18.9393 8.93946C19.5251 9.52525 19.5251 10.475 18.9393 11.0608L9.43934 20.5608C9.15804 20.8421 8.7765 21.0001 8.37868 21.0001H7.62132C7.2235 21.0001 6.84197 20.8421 6.56066 20.5608L4.06066 18.0608C3.47487 17.475 3.47487 16.5252 4.06066 15.9395L13.9393 6.06078C14.5251 5.475 15.4749 5.47499 16.0607 6.06078Z" stroke="white" stroke-width="1.5" stroke-linecap="round" stroke-linejoin="round"/>
<path d="M11 18.0001L7 14.0001" stroke="white" stroke-width="1.5" stroke-linecap="round" stroke-linejoin="round"/>
</svg>
