<svg width="70" height="14" viewBox="0 0 70 14" fill="none" xmlns="http://www.w3.org/2000/svg">
<g clip-path="url(#clip0_40_661)">
<path d="M68.3325 10.6179V2.81499H69.7049V10.6293H68.3325V10.6179ZM65.3724 10.6179V2.81499H66.7447V10.6293H65.3724V10.6179ZM64.2156 7.80523C64.2156 9.68792 63.2743 10.6973 61.539 10.6973C59.8038 10.6973 58.8624 9.68792 58.8624 7.80523C58.8624 5.92255 59.8038 4.91316 61.539 4.91316C63.2743 4.91316 64.2156 5.92255 64.2156 7.80523ZM62.9113 7.80523C62.9113 6.28548 62.401 6.00194 61.6071 6.00194C60.8132 6.00194 60.3028 6.28548 60.3028 7.80523C60.3028 9.32499 60.8132 9.60853 61.6071 9.60853C62.3329 9.60853 62.9113 9.32499 62.9113 7.80523ZM58.284 4.91316V6.06999C57.5582 6.06999 56.6962 6.06999 56.6962 6.43292V10.6293H55.3239V5.63901C55.3919 4.76572 58.284 4.91316 58.284 4.91316ZM50.0388 12.8635C51.0595 10.3344 50.9801 10.5499 51.0595 10.3344L49.0294 4.98121H50.4811L51.7854 8.88267L53.0102 4.98121H54.4619L52.2957 10.7654L51.5018 12.8635H50.0388ZM48.2355 7.22682V10.6293H46.8632V7.14743C46.8632 6.63706 46.7157 6.13804 45.4908 6.13804C45.1733 6.14938 44.8557 6.19475 44.5495 6.28548V10.6293H43.1772V2.81499H44.5495V5.0606C44.9124 4.90182 45.3094 4.83377 45.7063 4.84511C47.3622 4.91316 48.2355 5.77511 48.2355 7.22682ZM40.648 9.54048C41.1471 9.5178 41.6347 9.42706 42.0997 9.2456V10.4024C41.5667 10.6179 41.011 10.7086 40.4325 10.686C38.6973 10.686 37.756 9.67658 37.756 7.79389C37.756 5.91121 38.6973 4.83377 40.4325 4.83377C40.9996 4.85645 41.5554 4.94719 42.0997 5.12865V6.28548C41.6347 6.10401 41.1471 6.01328 40.648 6.00194C39.7067 6.00194 39.1283 6.28548 39.1283 7.73719C39.1283 9.2456 39.7067 9.54048 40.648 9.54048ZM36.8827 7.07938V10.6179H35.5784V7.07938C35.5784 6.56902 35.5784 6.06999 34.4216 6.06999C34.0586 6.06999 33.3328 6.13804 33.3328 6.35353V10.6179H32.0285V5.92255C32.0285 4.98121 33.1854 4.83377 34.6257 4.83377C36.0888 4.91316 36.8827 5.49158 36.8827 7.07938ZM30.7356 4.98121V8.08877C30.7356 9.75597 30.1572 10.7654 28.2064 10.7654C26.2557 10.7654 25.7453 9.75597 25.7453 8.08877V4.98121H27.0496V8.23621C27.0496 9.17755 27.4125 9.46109 28.2064 9.46109C29.0004 9.46109 29.3633 9.17755 29.3633 8.23621V4.98121H30.7356ZM24.6679 4.91316V6.06999C23.9421 6.06999 23.0801 6.06999 23.0801 6.43292V10.6293H21.7078V5.63901C21.7758 4.76572 24.6679 4.91316 24.6679 4.91316ZM19.0199 9.54048C19.4962 9.52914 19.9612 9.42706 20.3922 9.2456V10.4024C19.8591 10.6179 19.3034 10.7086 18.725 10.686C16.9897 10.686 16.0484 9.67658 16.0484 7.79389C16.0484 5.91121 16.9897 4.83377 18.725 4.83377C19.2921 4.85645 19.8478 4.94719 20.3922 5.12865V6.28548C19.9499 6.11536 19.4849 6.01328 19.0199 6.00194C18.0785 6.00194 17.5001 6.28548 17.5001 7.73719C17.4321 9.2456 18.0899 9.54048 19.0199 9.54048ZM1.89425 7.80523C1.89425 4.64097 4.45742 2.08914 7.62169 2.08914C10.6045 2.10048 13.0769 4.39145 13.3151 7.36292V6.99999C13.3151 3.40475 10.4003 0.48999 6.8051 0.48999C3.20986 0.48999 0.295105 3.41609 0.295105 7.01133C0.295105 10.6066 3.20986 13.51 6.8051 13.51H7.23608C4.24193 13.3058 1.90559 10.8107 1.89425 7.80523Z" fill="#F47521"/>
<path d="M10.7066 8.08882C9.54977 8.08882 8.61977 7.15882 8.60842 6.01333C8.60842 5.1287 9.15282 4.34614 9.98074 4.03992C9.33428 3.69968 8.61977 3.51821 7.88257 3.52955C5.36477 3.52955 3.3233 5.57102 3.3233 8.08882C3.3233 10.6066 5.36477 12.6481 7.88257 12.6481C10.4004 12.6481 12.4418 10.6066 12.4418 8.08882C12.4532 7.79394 12.4305 7.51041 12.3738 7.21553C12.0222 7.79394 11.3757 8.12285 10.7066 8.08882Z" fill="#F47521"/>
</g>
<defs>
<clipPath id="clip0_40_661">
<rect width="70" height="13.02" fill="white" transform="translate(0 0.48999)"/>
</clipPath>
</defs>
</svg>
