<svg width="85" height="84" viewBox="0 0 85 84" fill="none" xmlns="http://www.w3.org/2000/svg">
<g id="ic:baseline-close">
<path id="Vector" d="M42.3093 37.6307L42.875 38.1964L43.4407 37.6307L60.8844 20.187C61.7435 19.3279 63.1365 19.3279 63.9956 20.187L64.688 20.8794C65.5471 21.7385 65.5471 23.1315 64.688 23.9906L47.2443 41.4343L46.6786 42L47.2443 42.5657L64.688 60.0094C65.5471 60.8685 65.5471 62.2615 64.688 63.1206L63.9956 63.813C63.1365 64.6721 61.7435 64.6721 60.8844 63.813L43.4407 46.3693L42.875 45.8036L42.3093 46.3693L24.8656 63.813C24.0065 64.6721 22.6135 64.6721 21.7544 63.813L21.062 63.1206C20.2029 62.2615 20.2029 60.8685 21.062 60.0094L38.5057 42.5657L39.0714 42L38.5057 41.4343L21.062 23.9906C20.2029 23.1315 20.2029 21.7385 21.062 20.8794L21.7544 20.187C22.6135 19.3279 24.0065 19.3279 24.8656 20.187L42.3093 37.6307Z" fill="#1C1C1D" stroke="white" stroke-width="1.6"/>
</g>
</svg>
