<svg width="18" height="18" viewBox="0 0 18 18" fill="none" xmlns="http://www.w3.org/2000/svg">
<path d="M8.99998 16.1999C9.78298 16.1999 10.539 16.0739 11.2446 15.8435C10.8952 15.3911 10.6009 14.8986 10.368 14.3765C9.92158 15.0074 9.43738 15.2999 8.99998 15.2999C8.40868 15.2999 7.73368 14.7689 7.18018 13.5827C6.96972 13.1213 6.80162 12.6418 6.67798 12.1499H9.90358C9.91498 11.8415 9.95608 11.5415 10.0269 11.2499H6.48538C6.36086 10.5064 6.29885 9.75379 6.29998 8.99993C6.29998 8.20523 6.36568 7.44743 6.48538 6.74993H11.5146C11.6226 7.38353 11.6874 8.06663 11.6982 8.78213C11.97 8.59613 12.2658 8.44613 12.5856 8.33213C12.5617 7.8022 12.5085 7.27399 12.4263 6.74993H14.886C15.075 7.24403 15.2037 7.76783 15.2631 8.31233C15.6003 8.42813 15.9114 8.58323 16.1964 8.77763C16.1527 7.36374 15.6935 5.99403 14.8761 4.83953C14.0587 3.68502 12.9194 2.79687 11.6003 2.28596C10.2812 1.77504 8.84088 1.66401 7.45908 1.96671C6.07728 2.26942 4.81526 2.97245 3.83058 3.98803C2.84591 5.00362 2.18221 6.28676 1.92234 7.67725C1.66248 9.06774 1.81797 10.504 2.36939 11.8066C2.92082 13.1093 3.84375 14.2207 5.02296 15.002C6.20217 15.7833 7.58541 16.2 8.99998 16.1999ZM8.99998 2.69993C9.59128 2.69993 10.2663 3.23093 10.8198 4.41713C11.0151 4.83653 11.1852 5.31893 11.3229 5.84993H6.67708C6.81478 5.31893 6.98488 4.83653 7.18108 4.41713C7.73278 3.23093 8.40778 2.69993 8.99998 2.69993ZM6.36478 4.03643C6.099 4.61856 5.89304 5.22618 5.75008 5.84993H3.54238C4.30207 4.53661 5.509 3.54052 6.94258 3.04373C6.72568 3.34073 6.53218 3.67733 6.36478 4.03643ZM5.57278 6.74993C5.45641 7.49425 5.39863 8.24656 5.39998 8.99993C5.39998 9.78293 5.46028 10.5407 5.57368 11.2499H3.11398C2.83981 10.5315 2.6995 9.76891 2.69998 8.99993C2.69998 8.20793 2.84668 7.44833 3.11398 6.74993H5.57278ZM5.75008 12.1499C5.90848 12.8186 6.11638 13.4297 6.36478 13.9634C6.53218 14.3225 6.72568 14.6591 6.94258 14.9561C5.509 14.4593 4.30207 13.4633 3.54238 12.1499H5.75008ZM11.0574 3.04373C12.491 3.54052 13.6979 4.53661 14.4576 5.84993H12.249C12.106 5.22618 11.9001 4.61856 11.6343 4.03643C11.4742 3.68764 11.2807 3.35519 11.0565 3.04373M17.1 12.3137C17.1 10.484 15.7815 9.00083 13.9509 9.00083C12.1203 9.00083 10.8 10.484 10.8 12.3137C10.8 13.6853 11.6838 15.4907 13.7304 17.0261C13.8609 17.1251 14.0409 17.1251 14.1714 17.0261C16.2198 15.4907 17.1 13.6853 17.1 12.3137ZM15.3 12.1499C15.3 12.508 15.1577 12.8513 14.9046 13.1045C14.6514 13.3577 14.308 13.4999 13.95 13.4999C13.5919 13.4999 13.2486 13.3577 12.9954 13.1045C12.7422 12.8513 12.6 12.508 12.6 12.1499C12.6 11.7919 12.7422 11.4485 12.9954 11.1953C13.2486 10.9422 13.5919 10.7999 13.95 10.7999C14.308 10.7999 14.6514 10.9422 14.9046 11.1953C15.1577 11.4485 15.3 11.7919 15.3 12.1499Z" fill="#1C1C1D"/>
</svg>
