<svg width="223" height="89" viewBox="0 0 223 89" fill="none" xmlns="http://www.w3.org/2000/svg">
<g id="Group 273">
<path id="Vector" d="M203.24 69.8959V22.7192H221.308V69.8959H203.24Z" fill="white"/>
<path id="Vector_2" d="M179.448 69.9001V8.20206H197.595V69.9001H179.448Z" fill="white"/>
<path id="Vector_3" d="M213.833 1.45959L214.177 2.39349C215.455 5.78505 218.109 8.48846 221.55 9.76644L222.484 10.1105C223.172 10.3563 223.172 11.2902 222.484 11.5359L221.55 11.88C218.158 13.158 215.455 15.8123 214.177 19.253L213.833 20.1869C213.587 20.875 212.653 20.875 212.408 20.1869L212.063 19.253C210.785 15.8614 208.131 13.158 204.69 11.88L203.757 11.5359C203.068 11.2902 203.068 10.3563 203.757 10.1105L204.69 9.76644C208.082 8.48846 210.785 5.8342 212.063 2.39349L212.408 1.45959C212.653 0.771446 213.587 0.771446 213.833 1.45959Z" fill="white"/>
<path id="Vector_4" d="M213.833 1.45959L214.177 2.39349C215.455 5.78505 218.109 8.48846 221.55 9.76644L222.484 10.1105C223.172 10.3563 223.172 11.2902 222.484 11.5359L221.55 11.88C218.158 13.158 215.455 15.8123 214.177 19.253L213.833 20.1869C213.587 20.875 212.653 20.875 212.408 20.1869L212.063 19.253C210.785 15.8614 208.131 13.158 204.69 11.88L203.757 11.5359C203.068 11.2902 203.068 10.3563 203.757 10.1105L204.69 9.76644C208.082 8.48846 210.785 5.8342 212.063 2.39349L212.408 1.45959C212.653 0.771446 213.587 0.771446 213.833 1.45959Z" fill="white"/>
<path id="Vector_5" d="M158.142 70.0615L145.016 50.5842V70.0615H128.418V7.39554H145.016V41.1843L158.142 22.5539H178.042L159.327 46.4347L178.381 70.0615H158.142Z" fill="white"/>
<path id="Vector_6" d="M77.6565 45.4104C77.6565 40.4988 78.6727 36.2081 80.7051 32.5385C82.7375 28.8689 85.5603 26.0461 89.1735 24.0701C92.8431 22.0942 97.0208 21.1062 101.707 21.1062C107.747 21.1062 112.828 22.7716 116.95 26.1025C121.071 29.377 123.724 33.9781 124.91 39.906H107.296C106.28 36.8009 104.304 35.2484 101.368 35.2484C99.2791 35.2484 97.6136 36.1235 96.3716 37.8736C95.186 39.5673 94.5932 42.0795 94.5932 45.4104C94.5932 48.7413 95.186 51.2818 96.3716 53.032C97.6136 54.7821 99.2791 55.6572 101.368 55.6572C104.36 55.6572 106.336 54.1046 107.296 50.9996H124.91C123.724 56.871 121.071 61.4721 116.95 64.803C112.828 68.1339 107.747 69.7993 101.707 69.7993C97.0208 69.7993 92.8431 68.8114 89.1735 66.8354C85.5603 64.8595 82.7375 62.0367 80.7051 58.367C78.6727 54.6974 77.6565 50.3785 77.6565 45.4104Z" fill="white"/>
<path id="Vector_7" d="M0 88.0216V22.5766H17.0639V27.1939C18.5361 25.4541 20.3763 24.0823 22.5846 23.0785C24.7928 22.0748 27.4026 21.5729 30.4139 21.5729C34.6296 21.5729 38.4439 22.5432 41.8567 24.4838C45.2695 26.4244 47.9796 29.2349 49.9871 32.9153C51.9946 36.5289 52.9984 40.9454 52.9984 46.1649C52.9984 51.3176 51.9946 55.7341 49.9871 59.4145C47.9796 63.095 45.2695 65.9055 41.8567 67.8461C38.4439 69.7867 34.6296 70.757 30.4139 70.757C27.7372 70.757 25.3616 70.3555 23.2872 69.5525C21.2127 68.7495 19.4729 67.6454 18.0676 66.2401V88.0216H0ZM25.9973 55.2991C27.7372 55.2991 29.2428 54.9311 30.5142 54.195C31.8526 53.4589 32.8898 52.4217 33.6259 51.0834C34.362 49.6781 34.73 48.0386 34.73 46.1649C34.73 44.2913 34.362 42.6852 33.6259 41.3469C32.8898 39.9416 31.8526 38.871 30.5142 38.1349C29.2428 37.3988 27.7372 37.0307 25.9973 37.0307C24.3244 37.0307 22.8188 37.3988 21.4804 38.1349C20.1421 38.871 19.1049 39.9416 18.3688 41.3469C17.6327 42.6852 17.2646 44.2913 17.2646 46.1649C17.2646 48.0386 17.6327 49.6781 18.3688 51.0834C19.1049 52.4217 20.1421 53.4589 21.4804 54.195C22.8188 54.9311 24.3244 55.2991 25.9973 55.2991Z" fill="white"/>
<g id="Group 272">
<path id="Vector_8" d="M56.4557 69.8959V22.7192H74.5233V69.8959H56.4557Z" fill="white"/>
<circle id="Ellipse 2" cx="65.7305" cy="10.6216" r="8.87161" fill="white"/>
</g>
</g>
</svg>
