<svg width="24" height="25" viewBox="0 0 24 25" fill="none" xmlns="http://www.w3.org/2000/svg">
<g id="snackbarfeedbackicon">
<g id="snackbarfeedbackicon_2">
<path id="Star 6" d="M7.9464 2.3347C8.19382 1.66606 9.13952 1.66606 9.38693 2.3347C10.3204 4.85728 12.3093 6.84618 14.8319 7.77962C15.5005 8.02704 15.5005 8.97274 14.8319 9.22015C12.3093 10.1536 10.3204 12.1425 9.38693 14.6651C9.13952 15.3337 8.19382 15.3337 7.9464 14.6651C7.01296 12.1425 5.02406 10.1536 2.50147 9.22015C1.83284 8.97274 1.83284 8.02704 2.50147 7.77962C5.02406 6.84618 7.01296 4.85728 7.9464 2.3347Z" fill="url(#paint0_linear_318_6782)"/>
<path id="Vector" d="M18.1333 14.5509L18.2784 14.9447C18.8173 16.3751 19.9367 17.5152 21.3878 18.0542L21.7817 18.1993C22.0719 18.303 22.0719 18.6968 21.7817 18.8005L21.3878 18.9456C19.9575 19.4845 18.8173 20.604 18.2784 22.055L18.1333 22.4489C18.0296 22.7391 17.6358 22.7391 17.5321 22.4489L17.387 22.055C16.848 20.6247 15.7286 19.4845 14.2775 18.9456L13.8837 18.8005C13.5935 18.6968 13.5935 18.303 13.8837 18.1993L14.2775 18.0542C15.7079 17.5152 16.848 16.3958 17.387 14.9447L17.5321 14.5509C17.6358 14.2607 18.0296 14.2607 18.1333 14.5509Z" fill="url(#paint1_linear_318_6782)"/>
</g>
</g>
<defs>
<linearGradient id="paint0_linear_318_6782" x1="15.3333" y1="8.49989" x2="2" y2="8.49989" gradientUnits="userSpaceOnUse">
<stop stop-color="#5822B4"/>
<stop offset="1" stop-color="#386BF6"/>
</linearGradient>
<linearGradient id="paint1_linear_318_6782" x1="21.9993" y1="18.4999" x2="13.666" y2="18.4999" gradientUnits="userSpaceOnUse">
<stop stop-color="#5822B4"/>
<stop offset="1" stop-color="#386BF6"/>
</linearGradient>
</defs>
</svg>
