<svg width="20" height="20" viewBox="0 0 20 20" fill="none" xmlns="http://www.w3.org/2000/svg">
<g id="sparks icon">
<path id="Star 6" d="M6 11.8126C5.39223 10.5954 4.40464 9.60777 3.18739 9C4.40464 8.39223 5.39223 7.40464 6 6.18739C6.60777 7.40464 7.59536 8.39223 8.81261 9C7.59536 9.60777 6.60777 10.5954 6 11.8126Z" stroke="white" stroke-width="1.5" stroke-linejoin="round"/>
<path id="Vector" d="M11.4693 4.49917C11.8731 4.22403 12.2236 3.87564 12.5008 3.46935C12.776 3.87306 13.1244 4.22358 13.5307 4.50083C13.1269 4.77597 12.7764 5.12436 12.4992 5.53065C12.224 5.12694 11.8756 4.77642 11.4693 4.49917Z" fill="#1E1E1E" stroke="white" stroke-width="1.5"/>
<path id="Vector_2" d="M11.4693 14.4992C11.8731 14.224 12.2236 13.8756 12.5008 13.4693C12.776 13.8731 13.1244 14.2236 13.5307 14.5008C13.1269 14.776 12.7764 15.1244 12.4992 15.5307C12.224 15.1269 11.8756 14.7764 11.4693 14.4992Z" fill="#1E1E1E" stroke="white" stroke-width="1.5"/>
</g>
</svg>
